<?xml version="1.0" standalone="no"?><!DOCTYPE svg PUBLIC "-//W3C//DTD SVG 1.1//EN" "http://www.w3.org/Graphics/SVG/1.1/DTD/svg11.dtd"><svg t="1618480261397" class="icon" viewBox="0 0 1024 1024" version="1.1" xmlns="http://www.w3.org/2000/svg" p-id="5237" xmlns:xlink="http://www.w3.org/1999/xlink" width="200" height="200"><defs><style type="text/css"></style></defs><path d="M760.685714 246.595918H431.542857l-53.289796-71.053061c-9.404082-12.538776-24.032653-19.853061-39.706122-19.853061H144.195918C117.028571 154.644898 94.040816 177.632653 94.040816 204.8V752.326531c0 40.75102 32.391837 73.142857 73.142857 73.142857h593.502041c40.75102 0 73.142857-32.391837 73.142857-73.142857V319.738776c-1.044898-40.75102-33.436735-73.142857-73.142857-73.142858z" fill="#208AF9" p-id="5238"></path><path d="M736.653061 869.355102C630.073469 869.355102 543.346939 782.628571 543.346939 676.04898s86.726531-193.306122 193.306122-193.306123S929.959184 568.42449 929.959184 675.004082s-86.726531 194.35102-193.306123 194.35102z" fill="#A5CAFC" p-id="5239"></path><path d="M804.571429 703.216327H667.689796c-14.628571 0-27.167347-12.538776-27.167347-27.167347s12.538776-27.167347 27.167347-27.167347H804.571429c14.628571 0 27.167347 12.538776 27.167347 27.167347s-11.493878 27.167347-27.167347 27.167347z" fill="#208AF9" p-id="5240"></path><path d="M736.653061 771.134694c-14.628571 0-27.167347-12.538776-27.167347-27.167347V607.085714c0-14.628571 12.538776-27.167347 27.167347-27.167347s27.167347 12.538776 27.167347 27.167347v136.881633c0 14.628571-12.538776 27.167347-27.167347 27.167347z" fill="#208AF9" p-id="5241"></path></svg>