<?xml version="1.0" standalone="no"?><!DOCTYPE svg PUBLIC "-//W3C//DTD SVG 1.1//EN" "http://www.w3.org/Graphics/SVG/1.1/DTD/svg11.dtd"><svg t="1617792611862" class="icon" viewBox="0 0 1024 1024" version="1.1" xmlns="http://www.w3.org/2000/svg" p-id="2072" xmlns:xlink="http://www.w3.org/1999/xlink" width="200" height="200"><defs><style type="text/css"></style></defs><path d="M213.972 214.906l0.934-0.934c27.606-27.606 68.674-30.581 92.168-7.087l225.23 225.23c29.72-40.254 30.733-93.311-0.599-124.643L345.639 121.406c-35.132-35.132-97.076-30.148-138.356 11.132l-74.744 74.744c-41.28 41.28-46.264 103.224-11.132 138.356l186.065 186.065c31.332 31.332 84.389 30.319 124.643 0.599l-225.23-225.23c-23.494-23.492-20.519-64.56 7.087-92.166zM808.745 809.679l0.934-0.934c27.606-27.606 31.18-68.074 7.686-91.568l-225.23-225.23c40.254-29.72 93.311-30.733 124.643 0.599l186.065 186.065c35.132 35.132 29.548 96.477-11.732 137.757l-74.744 74.744c-41.28 41.28-102.625 46.863-137.757 11.732L492.546 716.779c-31.332-31.332-31.909-82.799-0.599-124.643l225.23 225.23c23.494 23.494 63.962 19.92 91.568-7.687z" fill="#666666" p-id="2073"></path><path d="M627.123 628.713c-12.296 12.296-32.232 12.296-44.528 0L394.938 441.057c-12.296-12.296-12.296-32.232 0-44.528s32.232-12.296 44.528 0l187.656 187.656c12.297 12.296 12.297 32.232 0.001 44.528z" fill="#666666" p-id="2074"></path></svg>