<?xml version="1.0" standalone="no"?><!DOCTYPE svg PUBLIC "-//W3C//DTD SVG 1.1//EN" "http://www.w3.org/Graphics/SVG/1.1/DTD/svg11.dtd"><svg t="1618484500089" class="icon" viewBox="0 0 1024 1024" version="1.1" xmlns="http://www.w3.org/2000/svg" p-id="57966" xmlns:xlink="http://www.w3.org/1999/xlink" width="200" height="200"><defs><style type="text/css"></style></defs><path d="M874.496 34.816h-548.864c-57.856 0-104.96 47.104-104.96 104.96v84.48h478.72c57.856 0 104.96 47.104 104.96 104.96V793.6h70.144c57.856 0 104.96-47.104 104.96-104.96V140.288c0-58.368-47.104-105.472-104.96-105.472z" fill="#CB522E" p-id="57967"></path><path d="M220.16 689.152v-464.384h-70.144c-57.856 0-104.96 47.104-104.96 104.96v548.864c0 57.856 47.104 104.96 104.96 104.96h548.864c57.856 0 104.96-47.104 104.96-104.96v-84.48h-478.72c-57.856 0-104.96-47.104-104.96-104.96z" fill="#5161C4" p-id="57968"></path><path d="M698.88 224.768H220.16v464.384c0 57.856 47.104 104.96 104.96 104.96h478.72v-464.384c0.512-57.856-46.592-104.96-104.96-104.96z" fill="#3E3E9B" p-id="57969"></path></svg>