<?xml version="1.0" standalone="no"?><!DOCTYPE svg PUBLIC "-//W3C//DTD SVG 1.1//EN" "http://www.w3.org/Graphics/SVG/1.1/DTD/svg11.dtd"><svg t="1617243179809" class="icon" viewBox="0 0 1024 1024" version="1.1" xmlns="http://www.w3.org/2000/svg" p-id="1499" xmlns:xlink="http://www.w3.org/1999/xlink" width="200" height="200"><defs><style type="text/css"></style></defs><path d="M665.9584 235.008c-46.3872-19.456-93.0816-4.7104-98.3552-2.9696-3.2768 1.024-6.3488 2.56-11.7248 5.1712-3.4816 1.6896-8.0896 3.9424-14.5408 6.912-13.9776 6.5024-45.6192 1.6896-54.7328-2.048-10.5472-4.3008-27.5456-9.216-30.7712-10.1376-6.6048-2.2016-52.48-16.0256-98.048 3.072-24.4224-23.9616-46.8992-32.9216-89.2416-22.9888-19.968 4.6592-36.7616 17.664-48.5888 37.5808-13.8752 23.3984-18.9952 54.3232-12.7488 77.0048 6.6048 24.0128 23.7056 40.5504 38.8096 49.5616-2.0992 31.0272 5.632 75.4176 29.184 102.7584 21.2992 24.7808 22.784 53.6064 22.4256 64.8704-0.768 24.064 3.8912 101.888 92.2624 129.7408 10.5984 35.1744 46.1312 84.8384 127.5392 84.8384 38.5024 0 68.864-10.8544 90.2144-32.2048 17.7664-17.7664 24.832-38.8608 27.648-53.0432 87.04-28.2112 91.6992-105.3696 90.9312-129.28-0.3584-11.264 1.0752-40.0896 22.4256-64.8704 23.552-27.392 31.232-71.7824 29.184-102.7584 15.1552-9.0112 32.2048-25.5488 38.8096-49.5616 6.2464-22.6816 1.1264-53.6064-12.7488-77.0048-11.8272-19.9168-28.6208-32.9216-48.5888-37.632-42.4448-9.984-64.9216-1.024-89.344 22.9888z m102.6048 35.4816c9.3184 15.6672 11.3152 34.9696 8.4992 45.2096-4.608 16.7424-20.5312 26.2656-25.088 27.6992a20.3776 20.3776 0 0 0-13.5168 8.6016c-3.328 4.8128-4.4032 10.8032-3.0208 16.4864 4.7616 19.5072 0.0512 62.8224-17.92 83.712-30.72 35.6864-32.8192 76.8512-32.3072 92.928 0.8704 27.5456-7.4752 76.1856-73.3696 92.0576-9.216 2.2016-15.7184 10.4448-15.6672 19.968 0 0.2048-0.4096 22.9888-17.5104 40.0896-13.3632 13.4144-33.9968 20.224-61.2352 20.224-78.1312 0-89.0368-56.7296-89.9584-63.0784a20.42368 20.42368 0 0 0-15.5136-17.152c-65.9456-15.872-74.2912-64.4608-73.3696-92.0576 0.512-16.0256-1.5872-57.1904-32.3072-92.928-17.9712-20.8896-22.6816-64.2048-17.92-83.712a20.50048 20.50048 0 0 0-16.5376-25.088c-4.5568-1.4336-20.48-10.9568-25.088-27.6992-2.816-10.24-0.8192-29.5424 8.4992-45.2096 4.1984-7.0656 11.52-16.0256 22.7328-18.6368 28.7744-6.7584 37.2224-3.6864 60.2624 21.9136a20.45952 20.45952 0 0 0 25.7024 3.8912c35.7376-21.2992 78.7456-7.0144 79.104-6.8608 0.4096 0.1536 0.8192 0.256 1.2288 0.4096 4.864 1.3824 19.2 5.632 26.9312 8.8064 12.288 5.0176 57.7024 15.104 87.5008 1.28 6.7072-3.1232 11.5712-5.4784 15.2064-7.2704 2.7648-1.3312 5.5808-2.7136 6.2464-2.9696 0.2048-0.0512 0.4608-0.1536 0.6656-0.2048 0.4096-0.1536 43.4688-14.4384 79.2064 6.8096 8.3968 5.0176 19.1488 3.3792 25.7024-3.8912 23.04-25.6 31.488-28.672 60.2624-21.9136 11.0592 2.6112 18.3808 11.5712 22.5792 18.5856z" fill="#1296db" p-id="1500"></path><path d="M450.4064 468.0192c1.28 0 2.56-0.1024 3.84-0.3072a24.99584 24.99584 0 0 0 20.1728-17.0496c4.5568-13.8752 7.936-34.4576 4.7104-46.848-3.84-14.848-17.92-21.7088-62.72-30.6176-10.9056-2.1504-21.76 2.9184-27.0336 12.6464a25.18528 25.18528 0 0 0 3.8912 29.5936c16.9472 17.664 29.952 32.5632 36.5568 41.9328a25.18016 25.18016 0 0 0 20.5824 10.6496zM615.936 373.1968c-44.8 8.8576-58.88 15.7184-62.72 30.6176-3.2256 12.3904 0.2048 32.9728 4.7104 46.8992a25.07776 25.07776 0 0 0 20.1728 17.0496 25.01632 25.01632 0 0 0 24.3712-10.3424c6.6048-9.3184 19.5584-24.2176 36.5568-41.9328 7.68-7.9872 9.216-19.8656 3.9424-29.5936a25.088 25.088 0 0 0-27.0336-12.6976zM513.8944 499.7632h-5.1712c-30.3104 0-61.0304 3.328-80.4864 27.5968a22.3744 22.3744 0 0 0-3.9424 20.7872c2.2528 7.2192 7.8848 12.8 15.2064 14.9504 8.9088 2.6112 37.9904 12.9536 37.7344 36.096-0.256 22.8352-9.1648 27.392-24.5248 27.4944-7.4752 0.0512-14.3872 3.7888-18.5856 9.984-4.1472 6.144-5.0176 13.9264-2.2528 20.8384 9.984 25.1904 40.9088 42.0864 76.8512 42.0864 40.4992 0 68.2496-11.9808 82.3808-35.584 3.7376-6.1952 4.2496-13.9264 1.3312-20.5824a22.64576 22.64576 0 0 0-16.128-13.1072c-33.9456-7.1168-33.1264-22.784-32.7168-30.3104 1.1776-21.6576 18.3808-34.2016 33.8944-36.7104a22.79936 22.79936 0 0 0 17.6128-14.336c2.816-7.4752 1.4336-16.0256-3.6352-22.2208-22.528-27.2384-53.0944-27.136-77.568-26.9824z m-5.1712 40.96h5.376c6.3488-0.0512 11.9808 0 16.9984 0.3072a79.104 79.104 0 0 0-20.6848 26.624c-5.5296-10.2912-13.568-18.944-22.9376-25.9072 6.656-0.8192 13.9264-1.024 21.248-1.024z m0 117.9648c-6.0928 0-11.7248-0.768-16.6912-1.9968 7.9872-5.4784 14.2848-12.9024 18.7392-22.0672 4.4544 7.8848 11.2128 15.5648 21.248 21.9648-7.7312 1.5872-15.9744 2.0992-23.296 2.0992z" fill="#1296db" p-id="1501"></path><path d="M745.216 117.5552l-1.536-1.1264c-41.0624-30.5664-83.0464-29.4912-108.3904-24.576l-2.4576-11.3664a23.2704 23.2704 0 0 0-14.2336-16.8448c-111.4624-44.288-196.4544-7.2192-212.3776 0.6656a23.28064 23.28064 0 0 0-12.3904 15.9744l-2.5088 11.6224c-25.344-4.9152-67.328-5.9904-108.3904 24.576l-1.536 1.1264c-57.1904 42.5472-191.1808 142.1824-186.2656 420.8128 0.1536 8.6528 5.0688 16.4864 12.8 20.4288 5.0176 2.56 10.6496 3.1744 15.9232 1.9456-13.568 50.6368-20.224 135.424 52.736 205.568a23.19872 23.19872 0 0 0 23.9616 5.12c7.68-2.7136 13.2608-9.1136 15.0016-16.9984 20.0192 47.872 52.5824 108.544 109.1584 139.4688 6.0928 3.3792 13.3632 3.7888 19.8144 1.1776a23.46496 23.46496 0 0 0 13.6192-14.592c4.0448-12.6464 8.3968-22.8352 12.3392-30.5664 8.96 34.2528 29.8496 72.0896 66.4576 92.3136 0.3072 0.1536 0.768 0.4096 1.0752 0.5632 0.256 0.1024 24.0128 11.8272 38.7072 37.2224 3.8912 6.7072 10.752 11.0592 18.432 11.6224a23.45984 23.45984 0 0 0 19.8656-8.5504c21.248-26.2144 37.376-44.288 48.3328-54.016 1.7408 3.3792 4.352 6.3488 7.68 8.6016a23.30624 23.30624 0 0 0 25.8048 0.2048c28.416-18.4832 49.7664-50.4832 59.3408-87.9104 3.9424 7.7312 8.2432 17.8176 12.2368 30.4128 2.1504 6.656 7.0656 12.032 13.6192 14.6432 6.5024 2.6112 13.7216 2.2016 19.8144-1.1776 56.6272-30.9248 89.1904-91.5968 109.1584-139.4688a23.30624 23.30624 0 0 0 15.0016 16.9984c8.3968 2.9696 17.5616 1.024 23.9616-5.12 72.96-70.0928 66.304-154.88 52.736-205.568 5.2736 1.2288 10.9056 0.6144 15.9232-1.9456a23.30624 23.30624 0 0 0 12.8-20.3776c4.9664-278.6816-129.024-378.3168-186.2144-420.864z m128.5632 386.9696c-8.2944-0.5632-16.1792 3.3792-20.7872 10.1888a23.35744 23.35744 0 0 0-1.792 22.9888c8.192 17.408 42.0864 99.584-6.7584 172.032-2.8672-10.24-6.2976-18.3296-10.5984-25.0368a23.28576 23.28576 0 0 0-21.8624-10.6496 23.26016 23.26016 0 0 0-19.456 14.6432c-1.6896 4.1984-3.5328 9.1648-5.5808 14.7456-14.2336 38.2464-39.4752 106.0864-87.2448 143.0016-11.1616-27.2384-28.928-56.7808-52.9408-54.8352-6.912 0.6144-23.4496 5.0176-27.136 32.5632-2.6624 19.8656-11.0592 44.3392-26.7264 62.976-1.1264-1.0752-2.3552-1.9968-3.6864-2.8672-25.7024-15.6672-54.5792 11.3152-91.1872 55.0912-17.7664-20.6848-37.2736-31.1296-41.5232-33.28-30.5152-17.0496-45.4656-53.4528-49.3056-81.92-3.7376-27.5456-20.224-31.9488-27.136-32.5632-23.9616-2.0992-41.7792 27.5968-52.9408 54.8352-47.7696-36.9152-73.0112-104.7552-87.2448-143.0528-2.0992-5.5808-3.9424-10.5472-5.5808-14.7456a23.26016 23.26016 0 0 0-19.456-14.6432c-8.704-0.768-17.152 3.2256-21.8624 10.6496-4.3008 6.7072-7.7312 14.7968-10.5984 25.0368-48.8448-72.448-14.9504-154.624-6.7584-172.032 3.4816-7.424 2.816-16.2304-1.792-22.9888-4.608-6.8096-12.5952-10.6496-20.7872-10.1888-5.1712 0.3072-10.752 1.5872-16.6912 3.7888 4.8128-235.2128 119.6032-320.6144 169.728-357.888l1.536-1.1264c38.6048-28.7232 78.1312-17.7152 89.344-13.6192 6.3488 2.304 13.3632 1.7408 19.2512-1.536a23.54176 23.54176 0 0 0 11.52-15.5136l4.5056-20.992c21.6576-8.704 83.7632-27.648 162.816 0.768l4.352 20.224c1.4336 6.6048 5.632 12.2368 11.52 15.5136 5.888 3.2256 12.9024 3.7888 19.2 1.4848 11.2128-4.096 50.7392-15.104 89.344 13.6192l1.536 1.1264c50.1248 37.2736 164.9152 122.6752 169.728 357.888-6.1952-2.0992-11.7248-3.3792-16.9472-3.6864z" fill="#1296db" p-id="1502"></path></svg>