<?xml version="1.0" standalone="no"?><!DOCTYPE svg PUBLIC "-//W3C//DTD SVG 1.1//EN" "http://www.w3.org/Graphics/SVG/1.1/DTD/svg11.dtd"><svg t="1618481747601" class="icon" viewBox="0 0 1024 1024" version="1.1" xmlns="http://www.w3.org/2000/svg" p-id="40778" xmlns:xlink="http://www.w3.org/1999/xlink" width="200" height="200"><defs><style type="text/css"></style></defs><path d="M136.533604 0.00026a49.119975 49.119975 0 0 0-35.839982 15.359992C91.307627 25.600247 85.33463 38.40024 85.33463 51.200234v921.599532a49.119975 49.119975 0 0 0 15.359992 35.839982 50.545974 50.545974 0 0 0 35.839982 15.359992h750.931619a49.119975 49.119975 0 0 0 35.839981-15.359992 50.546974 50.546974 0 0 0 15.359993-35.839982V290.134113L648.533344 0.00026z" fill="#5CC4FF" p-id="40779"></path><path d="M938.666197 290.133113H699.733318a52.492973 52.492973 0 0 1-51.199974-51.199974V0.00026z" fill="#BDE7FE" p-id="40780"></path><path d="M759.556288 429.728042H561.123388V864.999821h-95.299951V429.728042H264.538539V333.000091h494.299749v96.726951h0.711z" fill="#FFFFFF" p-id="40781"></path></svg>