<?xml version="1.0" standalone="no"?><!DOCTYPE svg PUBLIC "-//W3C//DTD SVG 1.1//EN" "http://www.w3.org/Graphics/SVG/1.1/DTD/svg11.dtd"><svg t="1618484368502" class="icon" viewBox="0 0 1024 1024" version="1.1" xmlns="http://www.w3.org/2000/svg" p-id="56133" xmlns:xlink="http://www.w3.org/1999/xlink" width="200" height="200"><defs><style type="text/css"></style></defs><path d="M446.506667 213.333333a42.666667 42.666667 0 0 1 35.498666 18.986667L554.666667 341.333333h256a42.666667 42.666667 0 0 1 42.666666 42.666667v384a42.666667 42.666667 0 0 1-42.666666 42.666667H213.333333a42.666667 42.666667 0 0 1-42.666666-42.666667V256a42.666667 42.666667 0 0 1 42.666666-42.666667h233.173334zM832 213.333333a21.333333 21.333333 0 1 1 0 42.666667h-256a21.333333 21.333333 0 1 1 0-42.666667h256z" fill="#005DFC" p-id="56134"></path><path d="M527.104 449.066667l90.453333 90.496a21.333333 21.333333 0 1 1-30.122666 30.208l-54.101334-54.186667V682.666667a21.333333 21.333333 0 1 1-42.666666 0v-166.997334l-54.101334 54.101334a21.333333 21.333333 0 0 1-30.165333-30.208l90.496-90.453334a21.333333 21.333333 0 0 1 30.208 0z" fill="#FFFFFF" p-id="56135"></path></svg>