<?xml version="1.0" standalone="no"?><!DOCTYPE svg PUBLIC "-//W3C//DTD SVG 1.1//EN" "http://www.w3.org/Graphics/SVG/1.1/DTD/svg11.dtd"><svg t="1617276365848" class="icon" viewBox="0 0 1024 1024" version="1.1" xmlns="http://www.w3.org/2000/svg" p-id="7726" xmlns:xlink="http://www.w3.org/1999/xlink" width="200" height="200"><defs><style type="text/css"></style></defs><path d="M512.122 272.146c-247.216 0-412.027 247.216-412.027 247.216s164.811 247.216 412.027 247.216c247.216 0 412.027-247.216 412.027-247.216S759.217 272.146 512.122 272.146z m0 410.207c-90.537 0-163.962-73.424-163.962-163.962s73.424-163.962 163.962-163.962c90.537 0 163.962 73.424 163.962 163.962-0.122 90.658-73.424 163.962-163.962 163.962z m-82.406-163.476c0 21.482 8.86 42.841 24.03 58.012s36.53 24.03 58.012 24.03 42.841-8.86 58.012-24.03c15.17-15.17 24.03-36.53 24.03-58.012s-8.86-42.841-24.03-58.012c-15.17-15.17-36.53-24.03-58.012-24.03s-42.841 8.86-58.012 24.03c-15.17 15.292-24.03 36.53-24.03 58.012z" fill="" p-id="7727"></path></svg>