<?xml version="1.0" standalone="no"?><!DOCTYPE svg PUBLIC "-//W3C//DTD SVG 1.1//EN" "http://www.w3.org/Graphics/SVG/1.1/DTD/svg11.dtd"><svg t="1618481500841" class="icon" viewBox="0 0 1024 1024" version="1.1" xmlns="http://www.w3.org/2000/svg" p-id="26615" xmlns:xlink="http://www.w3.org/1999/xlink" width="200" height="200"><defs><style type="text/css"></style></defs><path d="M923.136 969.557333H193.024v-909.653333h521.386667l208.725333 207.701333z" fill="#7CCDFF" p-id="26616"></path><path d="M379.050667 68.096h72.021333v87.722667h-72.021333zM459.093333 166.570667h57.856V254.293333H459.093333zM394.069333 265.045333h57.856v87.722667h-57.856zM459.093333 363.349333h57.856v87.722667H459.093333zM394.069333 461.824h57.856V549.546667h-57.856z" fill="#4191FB" p-id="26617"></path><path d="M577.365333 756.736l-40.618666-174.250667h-0.170667c-3.072-46.933333-38.4-84.138667-81.578667-84.138666-44.373333 0-80.384 38.912-81.749333 87.552h-0.170667l-41.813333 175.616v0.170666c-1.706667 6.485333-2.56 13.141333-2.56 20.138667 0 55.466667 56.490667 100.522667 126.293333 100.522667s126.293333-45.056 126.293334-100.522667c0-8.874667-1.365333-17.237333-3.925334-25.088z m-122.368 49.834667c-36.181333 0-65.536-17.578667-65.536-39.253334s29.354667-39.253333 65.536-39.253333 65.536 17.578667 65.536 39.253333-29.354667 39.253333-65.536 39.253334z" fill="#4191FB" p-id="26618"></path><path d="M912.896 253.952l2.56 671.914667c0 15.530667-12.458667 27.989333-27.989333 27.989333H237.909333c-15.530667 0-27.989333-12.458667-27.989333-27.989333V96.938667c0-15.530667 12.458667-27.989333 27.989333-27.989334l493.397334-1.024-38.912-39.936H239.274667c-36.352 0-65.706667 29.354667-65.706667 65.706667v835.584c0 36.352 29.354667 65.706667 65.706667 65.706667h646.826666c36.352 0 65.706667-29.354667 65.706667-65.706667V293.888l-38.912-39.936z" fill="#4191FB" p-id="26619"></path><path d="M692.394667 222.72c0 39.424 31.914667 71.338667 71.338666 71.338667h188.245334L692.394667 27.989333v194.730667z" fill="#C7E2FF" p-id="26620"></path><path d="M557.568 482.304H158.72c-50.346667 0-91.136-40.789333-91.136-91.136v-60.245333c0-50.346667 40.789333-91.136 91.136-91.136h398.848c50.346667 0 91.136 40.789333 91.136 91.136v60.245333c0 50.346667-40.789333 91.136-91.136 91.136z" fill="#4191FB" p-id="26621"></path><path d="M174.933333 287.573333h136.192v31.061334l-87.381333 91.136h90.624v33.450666H166.570667v-32.256l86.528-90.112h-78.165334v-33.28zM337.92 287.573333h48.298667v155.818667H337.92v-155.818667zM420.522667 287.573333h80.042666c17.408 0 30.549333 4.096 39.082667 12.458667 8.704 8.362667 12.970667 20.138667 12.970667 35.328 0 15.701333-4.778667 27.989333-14.165334 36.864-9.386667 8.874667-23.893333 13.312-43.349333 13.312h-26.282667v57.856h-48.298666v-155.818667z m48.298666 66.389334h11.776c9.216 0 15.872-1.536 19.626667-4.778667 3.754667-3.242667 5.632-7.338667 5.632-12.458667 0-4.949333-1.706667-9.045333-4.949333-12.458666s-9.386667-5.12-18.432-5.12h-13.653334v34.816z" fill="#FFFFFF" p-id="26622"></path></svg>